<?xml version="1.0" encoding="utf-8"?>
<svg xmlns="http://www.w3.org/2000/svg" viewBox="0 0 24 24" width="40" height="40">
  <path d="M7.5,20.02L7.5,20.02c-0.828,0-1.5-0.672-1.5-1.5v-14c0-0.828,0.672-1.5,1.5-1.5h0c0.828,0,1.5,0.672,1.5,1.5v14 C9,19.348,8.328,20.02,7.5,20.02z" fill="#FFFFFF" />
  <path d="M16.5,20L16.5,20c-0.828,0-1.5-0.672-1.5-1.5v-14C15,3.672,15.671,3,16.5,3h0C17.328,3,18,3.672,18,4.5v14 C18,19.328,17.328,20,16.5,20z" fill="#FFFFFF" />
  <path d="M16.501,20c-0.494,0-0.977-0.243-1.263-0.688l-9-14C5.79,4.614,5.992,3.687,6.689,3.238 c0.696-0.448,1.624-0.246,2.073,0.45l9,14c0.448,0.697,0.246,1.625-0.451,2.073C17.06,19.923,16.779,20,16.501,20z" opacity=".35" fill="#FFFFFF" />
</svg>